<svg width="110" height="98" viewBox="0 0 110 98" fill="none" xmlns="http://www.w3.org/2000/svg">
<path d="M98.2136 12V18.2857M106.071 12V18.2857M13.0947 84.2856V93.7141C13.0947 94.7617 13.6185 96.857 15.7137 96.857C17.809 96.857 27.0629 96.857 31.428 96.857C32.301 96.857 34.047 96.2284 34.047 93.7141C34.047 91.1998 34.047 86.3808 34.047 84.2856M77.2612 84.2856C77.2612 86.3808 77.2612 91.1998 77.2612 93.7141C77.2612 96.2284 75.5152 96.857 74.6422 96.857C70.2771 96.857 61.0232 96.857 58.9279 96.857C56.8327 96.857 56.3089 94.7617 56.3089 93.7141V84.2856M11.7852 27.7142C12.2217 18.8095 14.1423 1 18.3328 1C22.5232 1 54.9994 1 70.7136 1C73.7556 1 76.2136 16.4 77.2612 27.7142" stroke="white" stroke-width="2"/>
<path d="M89.0459 62.2857H102.141V30.8572" stroke="white" stroke-width="2"/>
<rect x="1" y="35" width="87.0475" height="45.1428" rx="1" stroke="white" stroke-width="2"/>
<rect x="13.0957" y="56" width="15.7143" height="6.2857" fill="white"/>
<rect x="60.2402" y="56" width="15.7143" height="6.2857" fill="white"/>
<rect x="94.2861" y="18.2859" width="15.7143" height="12.5714" rx="1" fill="white"/>
</svg>
