<svg width="35" height="33" viewBox="0 0 35 33" fill="none" xmlns="http://www.w3.org/2000/svg">
<path d="M31.2501 4.50001V6.50002M33.7501 4.50001V6.50002M4.16667 27.5001V30.5001C4.16667 30.8335 4.33334 31.5001 5.00001 31.5001C5.66667 31.5001 8.61113 31.5001 10 31.5001C10.2778 31.5001 10.8334 31.3001 10.8334 30.5001C10.8334 29.7001 10.8334 28.1668 10.8334 27.5001M24.5834 27.5001C24.5834 28.1668 24.5834 29.7001 24.5834 30.5001C24.5834 31.3001 24.0279 31.5001 23.7501 31.5001C22.3612 31.5001 19.4167 31.5001 18.7501 31.5001C18.0834 31.5001 17.9167 30.8335 17.9167 30.5001V27.5001M3.75 9.50004C3.88889 6.66669 4.5 1 5.83334 1C7.16668 1 17.5001 1 22.5001 1C23.468 1 24.2501 5.90002 24.5834 9.50004" stroke="black" stroke-width="2"/>
<path d="M28.334 20.5003H32.5007V10.5002" stroke="black" stroke-width="2"/>
<rect x="1" y="12.5" width="26.3335" height="13.0001" rx="1" stroke="black" stroke-width="2"/>
<rect x="4.66602" y="19" width="4.00002" height="1.00001" fill="white" stroke="black"/>
<rect x="19.668" y="19" width="4.00002" height="1.00001" fill="white" stroke="black"/>
<rect x="30" y="6.5" width="5.00002" height="4.00002" rx="1" fill="white"/>
</svg>
