<svg width="112" height="111" viewBox="0 0 112 111" fill="none" xmlns="http://www.w3.org/2000/svg">
<path d="M41.8564 27.7143L59.1422 1L54.4279 19.8571H68.5707L46.5707 46.5714L54.4279 27.7143H41.8564Z" fill="white"/>
<path d="M59.1422 1L59.6272 1.12127C59.6865 0.884057 59.5656 0.638752 59.3413 0.541368C59.117 0.443984 58.8552 0.52309 58.7224 0.728374L59.1422 1ZM41.8564 27.7143L41.4367 27.4427L40.9374 28.2143H41.8564V27.7143ZM54.4279 27.7143L54.8894 27.9066L55.1779 27.2143H54.4279V27.7143ZM46.5707 46.5714L46.1092 46.3791C46.0139 46.6079 46.1005 46.872 46.3129 46.9998C46.5252 47.1276 46.7991 47.0806 46.9567 46.8893L46.5707 46.5714ZM68.5707 19.8571L68.9567 20.175L69.6302 19.3571H68.5707V19.8571ZM54.4279 19.8571L53.9428 19.7359L53.7875 20.3571H54.4279V19.8571ZM58.7224 0.728374L41.4367 27.4427L42.2762 27.9859L59.5619 1.27163L58.7224 0.728374ZM41.8564 28.2143H54.4279V27.2143H41.8564V28.2143ZM53.9663 27.522L46.1092 46.3791L47.0323 46.7637L54.8894 27.9066L53.9663 27.522ZM46.9567 46.8893L68.9567 20.175L68.1848 19.5393L46.1848 46.2536L46.9567 46.8893ZM68.5707 19.3571H54.4279V20.3571H68.5707V19.3571ZM54.9129 19.9784L59.6272 1.12127L58.6571 0.878732L53.9428 19.7359L54.9129 19.9784Z" fill="white"/>
<path d="M32.4286 22.9988H5.71429C4.14286 22.9988 1 23.9416 1 27.713C1 31.4845 1 72.2368 1 92.1416C1 94.2368 1.94286 98.4273 5.71429 98.4273C6.56787 98.4273 10.6038 98.4273 16.7143 98.4273M79.5714 22.999C89 22.999 106.286 22.9976 107.857 22.9988C109.429 22.9999 111 24.5714 111 27.7138C111 47.6186 111 87.113 111 92.1416C111 97.1702 108.905 98.4273 107.857 98.4273C104.071 98.4273 99.8296 98.4273 95.2857 98.4273M16.7143 98.4273V111M16.7143 98.4273C34.4541 98.4273 69.6793 98.4273 95.2857 98.4273M95.2857 98.4273V111" stroke="white" stroke-width="2"/>
<path d="M13.5703 40.2858H22.9989M18.2846 35.5715V45.0001" stroke="white" stroke-width="2"/>
<path d="M89 40.2858H98.4286M93.7143 35.5715V45.0001" stroke="white" stroke-width="2"/>
<path d="M89 81.1428H98.4286M93.7143 76.4285V85.857" stroke="white" stroke-width="2"/>
<path d="M13.5703 81.1428H22.9989M18.2846 76.4285V85.857" stroke="white" stroke-width="2"/>
</svg>
