<svg width="37" height="36" viewBox="0 0 37 36" fill="none" xmlns="http://www.w3.org/2000/svg">
<path d="M14 9.5L19.5 1L18 7H22.5L15.5 15.5L18 9.5H14Z" fill="white"/>
<path d="M19.5 1L19.9851 1.12127C20.0444 0.884057 19.9234 0.638752 19.6991 0.541368C19.4749 0.443984 19.213 0.52309 19.0802 0.728374L19.5 1ZM14 9.5L13.5802 9.22837L13.0809 10H14V9.5ZM18 9.5L18.4615 9.69231L18.75 9H18V9.5ZM15.5 15.5L15.0385 15.3077C14.9431 15.5365 15.0298 15.8006 15.2421 15.9284C15.4545 16.0562 15.7284 16.0092 15.886 15.8179L15.5 15.5ZM22.5 7L22.886 7.31785L23.5595 6.5H22.5V7ZM18 7L17.5149 6.87873L17.3596 7.5H18V7ZM19.0802 0.728374L13.5802 9.22837L14.4198 9.77163L19.9198 1.27163L19.0802 0.728374ZM14 10H18V9H14V10ZM17.5385 9.30769L15.0385 15.3077L15.9615 15.6923L18.4615 9.69231L17.5385 9.30769ZM15.886 15.8179L22.886 7.31785L22.114 6.68215L15.114 15.1821L15.886 15.8179ZM22.5 6.5H18V7.5H22.5V6.5ZM18.4851 7.12127L19.9851 1.12127L19.0149 0.878732L17.5149 6.87873L18.4851 7.12127Z" fill="black"/>
<path d="M11 7.99966H2.5C2 7.99966 1 8.29966 1 9.49966C1 10.6997 1 23.6663 1 29.9997C1 30.6663 1.3 31.9997 2.5 31.9997C2.7716 31.9997 4.05575 31.9997 6 31.9997M26 7.99974C29 7.99974 34.5 7.99928 35 7.99966C35.5 8.00003 36 8.50003 36 9.4999C36 15.8332 36 28.3997 36 29.9997C36 31.5997 35.3333 31.9997 35 31.9997C33.7952 31.9997 32.4458 31.9997 31 31.9997M6 31.9997V36M6 31.9997C11.6445 31.9997 22.8525 31.9997 31 31.9997M31 31.9997V36" stroke="black" stroke-width="2"/>
<path d="M5 13.5H8M6.5 12V15" stroke="black" stroke-width="2"/>
<path d="M29 13.5H32M30.5 12V15" stroke="black" stroke-width="2"/>
<path d="M29 26.5H32M30.5 25V28" stroke="black" stroke-width="2"/>
<path d="M5 26.5H8M6.5 25V28" stroke="black" stroke-width="2"/>
</svg>
