<svg width="131" height="73" viewBox="0 0 131 73" fill="none" xmlns="http://www.w3.org/2000/svg">
<path d="M2.0338 41.0678C2.4338 38.6678 2.20047 16.0678 2.0338 5.06777C1.86714 4.06777 2.2338 2.06777 5.0338 2.06777C7.8338 2.06777 13.2004 2.06777 15.5337 2.06777C16.367 2.06777 18.0337 2.66777 18.0337 5.06777C18.0337 5.62951 18.0337 7.82739 18.0337 11.0678M2.0338 47.0678C2.0338 49.2344 2.0338 53.9678 2.0338 55.5678C2.0338 57.1678 4.03373 57.9011 5.03369 58.0678C7.36702 58.0678 12.6337 58.0678 15.0337 58.0678C17.4337 58.0678 18.0337 56.4011 18.0337 55.5678C18.0337 53.0802 18.0337 50.1871 18.0337 47.0679M18.0337 11.0678H33.5337C34.0337 11.2344 35.4337 11.1678 37.0337 9.56777L43.0337 4.06777C43.867 3.40111 45.9337 2.06777 47.5337 2.06777C48.6334 2.06777 56.0942 1.91524 63.0337 2.06783M18.0337 11.0678C18.0337 19.4968 18.0337 34.9799 18.0337 47.0679M71.5337 2.06783C69.2405 2.01571 66.1911 2.13725 63.0337 2.06783M63.0337 2.06783L52.0337 11.5678C51.0337 12.2345 49.4337 14.4678 51.0337 18.0678C51.867 19.2345 54.3337 20.8678 57.5337 18.0678L63.0337 13.5678C63.5337 13.4012 64.8337 13.0678 66.0337 13.0678L74.5337 13.5678L97.5337 36.5679C98.2004 38.0679 98.9337 41.6679 96.5337 44.0679C94.1337 46.4679 90.2004 45.0679 88.5337 44.0679M88.5337 44.0679L76.5337 32.5679M88.5337 44.0679C89.367 45.7345 90.5337 49.4679 88.5337 51.0679C87.9043 51.5714 87.275 51.9481 86.6456 52.1981M81.0337 51.0679C79.0337 49.4679 72.5337 43.4012 69.5337 40.5679M81.0337 51.0679C82.0337 52.9012 83.4337 57.0679 81.0337 59.0679C78.6337 61.0679 74.7004 59.9012 73.0337 59.0679M81.0337 51.0679C82.9043 52.5644 84.775 52.9411 86.6456 52.1981M73.0337 59.0679L64.5337 50.0679M73.0337 59.0679C74.2004 60.7345 75.5337 64.0679 73.0337 66.5679C69.384 70.2175 65.867 66.4012 64.5337 65.5679M64.5337 65.5679L60.5337 69.5679C59.367 70.5679 56.5337 72.0679 54.5337 70.0679C52.5337 68.0679 53.367 65.5679 54.0337 64.5679M64.5337 65.5679C65.367 63.9012 66.6337 60.1679 65.0337 58.5679C63.4337 56.9679 60.7004 57.5679 59.5337 58.0679M54.0337 64.5679L59.5337 58.0679M54.0337 64.5679C52.867 65.7345 49.8337 67.5679 47.0337 65.5679C46.0337 64.5679 44.6337 61.8679 47.0337 59.0679M59.5337 58.0679C60.2004 56.5679 61.0337 53.1679 59.0337 51.5679C57.0337 49.9679 54.5337 50.5679 53.5337 51.0679M47.0337 59.0679C49.4337 56.2679 52.367 52.5679 53.5337 51.0679M47.0337 59.0679C45.7004 60.4012 42.3337 62.4679 39.5337 60.0679C38.867 59.4012 38.0337 57.2679 40.0337 54.0679M53.5337 51.0679C54.2004 49.4012 54.9337 45.6679 52.5337 44.0679C50.1337 42.4679 47.867 43.7345 47.0337 44.5679M40.0337 54.0679L47.0337 44.5679M40.0337 54.0679C38.5337 54.9012 35.1337 56.0679 33.5337 54.0679C31.9337 52.0679 32.5337 49.2345 33.0337 48.0679L33.8572 47.0679M47.0337 44.5679C47.367 43.4012 47.5337 40.6679 45.5337 39.0679C43.5337 37.4679 41.0337 38.7345 40.0337 39.5679L33.8572 47.0679M33.8572 47.0679H18.0337M77.0337 2.06783H86.5337C87.0337 2.06784 88.2337 2.36787 89.0337 3.56787L95.0337 10.0679C95.367 10.4012 96.3337 11.0679 97.5337 11.0679C98.7337 11.0679 106.7 11.0679 110.534 11.0679M110.534 11.0679V7.56787C110.534 6.4012 111.234 4.06787 114.034 4.06787C116.834 4.06787 122.534 4.06787 125.034 4.06787C126.034 4.06787 128.034 4.66787 128.034 7.06787C128.034 9.46787 128.034 27.9269 128.034 36.8564M110.534 11.0679V56.5679M128.534 41.0679C128.534 46.0679 128.534 56.8679 128.534 60.0679C128.534 63.2679 126.2 64.0679 125.034 64.0679C122.534 64.0679 116.834 64.0679 114.034 64.0679C111.234 64.0679 110.534 61.4012 110.534 60.0679V56.5679M86.6456 52.1981C86.9416 53.6547 88.9337 56.5679 94.5337 56.5679C100.134 56.5679 107.534 56.5679 110.534 56.5679" stroke="black" stroke-width="3" stroke-linecap="round"/>
</svg>
