<svg width="106" height="107" viewBox="0 0 106 107" fill="none" xmlns="http://www.w3.org/2000/svg">
<path d="M9.77143 88.3871C8.15238 86.3303 4.72 81.647 3.94286 79.3687C3.29524 78.5776 2 76.141 2 72.7235V40.447C2 38.5484 2.97143 34.7512 6.85714 34.7512C10.7429 34.7512 11.7143 38.5484 11.7143 40.447V65.6037C11.8762 67.1859 12.7829 70.8249 15.1143 72.7235M15.1143 72.7235L26.7714 83.6406M15.1143 72.7235C14.3048 70.9831 13.3657 67.1226 16.0857 65.6037C18.8057 64.0848 22.0762 64.9708 23.3714 65.6037L32.6 72.2488C35.1905 74.6221 40.76 81.1724 42.3143 88.3871C43.8686 95.6018 45.2286 102.152 45.7143 104.525M17.0571 98.3548L21.9143 104.525M90.8857 73.1982C93.2171 71.2995 94.1238 67.6605 94.2857 66.0783V40.9217C94.2857 39.023 95.2571 35.2258 99.1429 35.2258C103.029 35.2258 104 39.023 104 40.9217V73.1982C104 76.6157 102.705 79.0522 102.057 79.8433C101.28 82.1217 97.8476 86.8049 96.2286 88.8618L84.0857 105M90.8857 73.1982L79.2286 84.1152M90.8857 73.1982C91.6952 71.4578 92.6343 67.5972 89.9143 66.0783C87.1943 64.5594 83.9238 65.4455 82.6286 66.0783L73.4 72.7235C70.8095 75.0968 65.24 81.647 63.6857 88.8618C62.1314 96.0765 60.7714 102.627 60.2857 105M47.1714 64.1797H41.3429M48.1429 43.7696C49.7619 48.0415 53 56.3005 53 55.1613C53 54.0221 56.5619 47.0922 58.3429 43.7696M48.1429 43.7696C47.6413 43.7696 47.1558 43.784 46.6857 43.8121M48.1429 43.7696C48.1429 43.3899 48.1429 41.5515 48.1429 40.6798M58.3429 43.7696V42.8203M58.3429 43.7696C62.8437 43.7696 70.6743 46.0453 72.927 54.212M58.3429 64.1797C59.9661 64.1797 62.3352 64.1797 64.6571 64.1797M64.6571 56.1106V64.1797M64.6571 64.1797C67.8934 64.1797 71.0379 64.1797 71.9429 64.1797C73.4971 64.1797 73.5619 62.5975 73.4 61.8065C73.7198 58.8379 73.5105 56.3273 72.927 54.212M41.3429 56.1106V64.1797M41.3429 64.1797H35.0286C34.219 64.1797 32.6 63.8949 32.6 62.7558C32.6 62.1208 32.2137 58.2768 33.336 54.212M40.3714 6.27189L45.2286 11.0184M53 2V8.64516M65.6286 6.27189L60.7714 11.4931M42.8 25.7327C42.3143 23.6759 40.1771 19.5622 35.5143 19.5622C30.8514 19.5622 28.7143 23.6759 28.2286 25.7327V29.0553M42.8 25.7327C41.2457 30.2894 32.4381 29.8464 28.2286 29.0553M42.8 25.7327C43.2857 21.7773 44.7429 13.8664 53 13.8664C59.9943 13.8664 62.7143 19.2458 63.2 21.9355V23.3594M42.8 25.7327V27.6313M42.8 33.8018C42.245 35.1034 40.8531 37.2973 38.7806 38.5484M42.8 33.8018V27.6313M42.8 33.8018C43.46 35.7367 45.2409 38.9423 48.1429 40.6798M28.2286 29.0553V33.8018C28.7835 35.1034 30.1755 37.2973 32.248 38.5484M32.248 38.5484C33.1986 39.1222 34.2924 39.4977 35.5143 39.4977C36.7362 39.4977 37.83 39.1222 38.7806 38.5484M32.248 38.5484V40.8911C32.2034 41.376 31.92 42.3456 31.1429 42.3456C30.1714 42.3456 22.4 41.3963 20.9429 51.8387C20.781 52.6298 21.04 54.212 23.3714 54.212C25.7029 54.212 30.9859 54.212 33.336 54.212M33.336 54.212C34.6584 49.4227 38.0751 44.3269 46.6857 43.8121M38.7806 38.5484V40.8911C38.8251 41.376 39.1086 42.3456 39.8857 42.3456C40.0824 42.3456 44.7429 43.3233 46.6857 43.8121M63.2 33.8018V27.8687M63.2 33.8018C62.5777 35.4236 60.9586 38.1233 58.3429 39.954M63.2 33.8018C63.4375 35.1943 64.5284 37.6079 67.0857 38.7959M42.8 27.6313C46.0381 28.106 53.0971 28.0111 55.4286 23.8341C55.7524 23.3594 56.6914 22.6949 57.8571 23.8341C59.0229 24.9733 61.9048 26.9985 63.2 27.8687M63.2 27.8687V24.7834M63.2 23.3594C63.9771 19.1825 68.381 18.4547 70.4857 18.6129C77.0914 18.6129 78.419 23.9923 78.2571 26.682V29.0553M63.2 23.3594V24.7834M63.2 24.7834C63.8476 26.682 67.7657 30.1945 78.2571 29.0553M78.2571 29.0553V33.8018C77.8581 35.3616 76.2789 38.2029 72.927 39.1673M48.1429 40.6798C49.5123 41.4997 51.1313 41.9927 53 41.871C55.0946 41.7345 56.8755 40.981 58.3429 39.954M58.3429 39.954V42.8203M58.3429 42.8203L65.1429 42.3456C65.6286 42.3456 66.6971 42.0608 67.0857 40.9217V38.7959M67.0857 38.7959C68.0154 39.2278 69.1389 39.4977 70.4857 39.4977C71.3872 39.4977 72.1989 39.3768 72.927 39.1673M72.927 54.212H82.6286C83.6 54.212 85.5429 53.8323 85.5429 52.3134C85.5429 50.4147 84.3764 42.3586 74.8571 42.3456C74.2053 42.3456 72.9041 42.0608 72.9143 40.9217C72.9245 39.7825 72.927 39.2774 72.927 39.1673" stroke="black" stroke-width="3" stroke-linecap="round" stroke-linejoin="round"/>
</svg>
