<svg width="106" height="107" viewBox="0 0 106 107" fill="none" xmlns="http://www.w3.org/2000/svg">
<path d="M14.1322 38.8803H7.39207C5.74449 38.8803 2.35947 40.0726 2 44.8419V62.7268C2.14978 64.714 3.43789 68.6884 7.39207 68.6884C11.0575 68.6884 21.9559 68.6884 28.0617 68.6884M14.1322 38.8803V89.2828C13.9824 90.3667 14.1322 92.5346 15.9295 92.5346C17.7269 92.5346 20.2731 92.5346 21.3216 92.5346C21.9207 92.1732 23.2088 91.0171 23.5683 89.2828C23.9278 87.5485 26.7137 74.8306 28.0617 68.6884M14.1322 38.8803H28.0617M72.5463 94.1607C61.7621 78.1186 38.8458 70.4949 29.4097 68.6884C28.994 68.6884 28.5427 68.6884 28.0617 68.6884M72.5463 94.1607V99.0384C72.5463 101.026 73.5348 105 77.489 105C81.4432 105 83.0308 101.026 83.3304 99.0384V9.07226C83.3304 6.54309 82.1621 1.59315 77.489 2.02672C72.8159 2.46029 71.6476 6.9044 71.6476 9.07226L71.6876 12.8658M72.5463 94.1607L71.6876 12.8658M71.6876 12.8658C60.2166 30.6422 38.7227 37.6156 29.4097 38.8803H28.0617M28.0617 68.6884V38.8803M87.8238 33.4604L99.5066 26.4149M91.4185 54.0551H104M87.8238 74.1078L99.5066 81.6953" stroke="black" stroke-width="3" stroke-linecap="round"/>
</svg>
