<svg width="107" height="107" viewBox="0 0 107 107" fill="none" xmlns="http://www.w3.org/2000/svg">
<path d="M8.5 11.5C6.76194 11.5 5.09144 11.5 3.5 11.5C3 11.5 2 11.1 2 9.5C2 7.9 2 4.83333 2 3.5C2 3 2.3 2 3.5 2H102C102.667 2 104 2.3 104 3.5C104 4.7 104 8 104 9.5C103.833 10.1667 103.2 11.5 102 11.5C101.82 11.5 100.213 11.5 97.5 11.5M8.5 11.5V94M8.5 11.5C36.7896 11.5 82.9782 11.5 97.5 11.5M8.5 94H4C3.33333 94 2 94.4 2 96C2 97.6 2 101.333 2 103C2.16667 103.333 2.8 104.1 4 104.5C4.77482 104.758 31.5788 104.753 59 104.671M8.5 94H55.4545M84.5 50C85.3333 50 87.1 49.6 87.5 48V44.5C87.5 43.8333 87 42.5 85 42.5C83 42.5 76.1667 42.5 73 42.5C72.1667 42.6667 70.5 43.3 70.5 44.5C70.5 45.7 70.5 47.3333 70.5 48C70.3333 48.6667 70.8 50 74 50M84.5 50H74M84.5 50V56.5M74 50V68.5L65.5 80.1875M59 104.671C51.8 104.694 52.6667 98.9001 54 96L55.4545 94M59 104.671C66.8125 104.648 74.675 104.619 82 104.588M65.5 80.1875H92.4237M65.5 80.1875L55.4545 94M92.4237 80.1875L85.517 70M92.4237 80.1875L95 84M97.5 11.5V87.675M97.5 87.675L95 84M97.5 87.675L99 90M79.5 56.5H84.5M84.5 56.5V63.5M79.5 63.5H84.5M84.5 63.5V68.5L85.517 70M79.5 70H85.517M37.5 80.5H44M48 80.5H54.5M37.5 87.675H54.5M72 25.5H92.4237M72 32.5H92.4237M46 22H58M59.5 29C59.5 26.2 62.1667 25.5 63.5 25.5C64.8333 25.6667 67 26.6 67 29C67 31.4 64.8333 32.3333 63.5 32.5C62.1667 32.5 59.5 31.8 59.5 29ZM59.5 29H46.5L39.5 34M39.5 34V46M39.5 34L29 29L19.5 34V46L29.5 51M39.5 46L49 51V62.5L39.5 67.5L29.5 62.5M39.5 46L29.5 51M29.5 62.5V51M29.5 62.5L22 67.5V76M22 76C20.6667 76 17.5 77.3 17.5 80.5C17.5 83.7 20 85 22 85C23.8496 85 26.5 84.1 26.5 80.5C26.5 76.9 23.3333 76 22 76ZM95 84C93.5 83.5 86 85.5 89 92C91 95 96.5 96 99 90M99 90L104 98C106 102 102 104.167 100.5 104.5C97.1532 104.518 93.4494 104.536 89.5 104.554M82 104.588C81.1667 102.725 80.5 98.7 84.5 97.5C86.6667 97.0362 90.7 97.7976 89.5 104.554M82 104.588C84.5749 104.577 87.0834 104.565 89.5 104.554M73.5 87C75 87 78 88 78 91C78 94.2 76 95.5 73.5 95.5C71 95.5 69 94 69 91C69 88.2984 71.5 87 73.5 87Z" stroke="black" stroke-width="3" stroke-linecap="round"/>
</svg>
