<svg width="106" height="107" viewBox="0 0 106 107" fill="none" xmlns="http://www.w3.org/2000/svg">
<path d="M15.3458 16.7824H31.5514M15.3458 25.3657H31.5514M32.5047 40.1481L49.6636 25.3657L65.8692 33.9491L82.5514 16.7824M82.5514 16.7824H75.4019M82.5514 16.7824V23.9352M23.9252 64.4676H92.0841M43.4673 84.0185H10.1028C7.40187 84.1775 2 83.0648 2 77.3426C2 71.6204 2 29.8164 2 9.62963C2 7.08642 3.52523 2 9.62617 2H96.3738C98.757 2 103.619 3.14444 104 7.72222V77.3426C104 79.7269 102.761 84.4 97.8037 84.0185H63.0093M43.4673 84.0185C43.3084 88.4691 40.6075 97.3704 31.0748 97.3704C29.486 97.2114 26.3084 97.4657 26.3084 99.7546C26.3084 102.044 26.3084 103.252 26.3084 103.569C26.3084 104.046 26.5944 105 27.7383 105C28.8822 105 61.8972 105 78.2617 105C78.7383 105 79.6916 104.714 79.6916 103.569C79.6916 102.425 79.6916 100.549 79.6916 99.7546C79.5327 98.9599 78.2617 97.3704 74.4486 97.3704C69.6822 97.3704 63.0093 90.2176 63.0093 84.0185M43.4673 84.0185H63.0093M10.5794 8.19907C9.94393 8.19907 8.6729 8.67593 8.6729 10.5833C8.6729 12.4907 8.6729 51.7515 8.6729 71.1435C8.51402 71.7793 8.6729 73.0509 10.5794 73.0509C12.486 73.0509 67.6168 73.0509 94.9439 73.0509C95.7383 73.0509 97.3271 72.5741 97.3271 70.6667C97.3271 68.7593 97.3271 29.9509 97.3271 10.7851C97.3271 9.92312 96.8505 8.19907 94.9439 8.19907C93.0374 8.19907 37.9065 8.19907 10.5794 8.19907ZM30.1215 47.7778C29.486 47.7778 28.215 48.1593 28.215 49.6852C28.215 51.2111 28.215 54.7716 28.215 56.3611C28.215 56.9969 28.5963 58.2685 30.1215 58.2685C31.6467 58.2685 34.8879 58.2685 36.3178 58.2685C37.1121 58.2685 38.7009 57.887 38.7009 56.3611C38.7009 54.8352 38.7009 51.2747 38.7009 49.6852C38.7009 49.0494 38.3196 47.7778 36.7944 47.7778C35.2692 47.7778 31.7103 47.7778 30.1215 47.7778ZM46.3271 37.7639C45.6916 37.9228 44.4206 38.5269 44.4206 39.6713C44.4206 40.8157 44.4206 51.2747 44.4206 56.3611C44.4206 56.9969 44.8019 58.2685 46.3271 58.2685C47.8523 58.2685 51.4112 58.2685 53 58.2685C53.6355 58.1096 54.9065 57.5056 54.9065 56.3611C54.9065 55.2167 54.9065 44.7577 54.9065 39.6713C54.9065 39.0355 54.5252 37.7639 53 37.7639C51.4748 37.7639 47.9159 37.7639 46.3271 37.7639ZM63.0093 41.1019C62.215 41.1019 60.6262 41.4833 60.6262 43.0093C60.6262 44.5352 60.6262 52.5463 60.6262 56.3611C60.6262 56.9969 61.1028 58.2685 63.0093 58.2685C64.9159 58.2685 67.9346 58.2685 69.2056 58.2685C70 58.2685 71.5888 57.887 71.5888 56.3611C71.5888 54.8352 71.5888 46.8241 71.5888 43.0093C71.5888 42.3735 71.1121 41.1019 69.2056 41.1019C67.2991 41.1019 64.2804 41.1019 63.0093 41.1019ZM79.215 31.088C78.4206 31.088 76.8318 31.4694 76.8318 32.9954C76.8318 34.5213 76.8318 49.2083 76.8318 56.3611C76.8318 57.1559 77.3084 58.7454 79.215 58.7454C81.1215 58.7454 84.4579 58.7454 85.8879 58.7454C86.6822 58.9043 88.271 58.65 88.271 56.3611C88.271 54.0722 88.271 39.8302 88.271 32.9954C88.1121 32.3596 87.4131 31.088 85.8879 31.088C84.3626 31.088 80.8037 31.088 79.215 31.088Z" stroke="black" stroke-width="3" stroke-linecap="round"/>
</svg>
