<svg width="106" height="106" viewBox="0 0 106 106" fill="none" xmlns="http://www.w3.org/2000/svg">
<path d="M33.0213 81.7618C43.5923 83.5316 49.8049 88.7561 51.9558 91.658V104.5H1.5V91.5319C3.25639 88.1789 10.304 81.1576 25.54 81.1576C28.2373 81.1576 30.7278 81.3782 33.014 81.7606C33.0164 81.761 33.0189 81.7614 33.0213 81.7618ZM53.5016 88.8106C50.7868 85.7425 45.4516 81.776 37.4672 79.6543C44.335 76.4299 56.2457 73.8143 68.0356 79.9729C61.1782 82.1747 56.2302 85.8915 53.5016 88.8106ZM104.224 104.5H54.9558V91.7002C57.3512 88.762 63.2887 83.9157 72.191 81.9554C75.2709 81.2771 78.7065 80.9441 82.4757 81.1552C97.3679 81.9892 103.081 88.5968 104.224 91.4507V104.5ZM29.9511 31.7789L30.504 29.8629H28.5099C25.624 29.8629 21.9377 29.4532 19.0912 27.8017C17.6942 26.9912 16.5187 25.8931 15.7149 24.4005C14.9107 22.9071 14.4282 20.9253 14.5651 18.2689C14.7753 14.1902 16.7066 11.7286 19.0311 10.2334C21.4253 8.69349 24.275 8.16691 26.1341 8.16691H34.4493C37.0483 8.16691 40.1943 9.2602 42.4031 11.6613C44.5589 14.0047 45.9659 17.7528 44.8566 23.3901C44.0194 27.645 40.8453 31.0075 36.9356 33.5169C34.0573 35.3643 30.9013 36.6684 28.3089 37.4689L29.9511 31.7789ZM79.5898 1.58139L79.6666 1.58139L79.743 1.57355C80.5295 1.49278 82.15 1.48938 84.46 1.51257C85.0256 1.51825 85.6273 1.52538 86.2602 1.53288C88.1568 1.55535 90.3335 1.58114 92.6568 1.58114C99.6188 1.58114 105.811 7.47445 104.254 15.1492C103.655 18.102 101.707 20.0717 99.3468 21.3618C96.9796 22.6559 94.3197 23.1889 92.6191 23.2772H84.9354H83.4354V24.7772V33.0784C74.4084 29.7444 69.3783 26.1461 66.7903 22.4134C64.0763 18.4989 63.8792 14.1827 65.0156 9.19534C65.8217 5.65721 68.1685 3.78563 71.0137 2.75374C73.9255 1.6977 77.2302 1.58143 79.5898 1.58139ZM34.7313 59.9005C34.7313 65.095 30.3899 69.3766 24.9462 69.3766C19.5025 69.3766 15.1611 65.095 15.1611 59.9005C15.1611 54.7061 19.5025 50.4245 24.9462 50.4245C30.3899 50.4245 34.7313 54.7061 34.7313 59.9005ZM63.2411 53.3149C63.2411 58.5094 58.8997 62.7909 53.456 62.7909C48.0123 62.7909 43.6708 58.5094 43.6708 53.3149C43.6708 48.1205 48.0123 43.8389 53.456 43.8389C58.8997 43.8389 63.2411 48.1205 63.2411 53.3149ZM90.563 59.9005C90.563 65.095 86.2216 69.3766 80.7778 69.3766C75.3341 69.3766 70.9927 65.095 70.9927 59.9005C70.9927 54.7061 75.3341 50.4245 80.7778 50.4245C86.2216 50.4245 90.563 54.7061 90.563 59.9005Z" stroke="black" stroke-width="3"/>
</svg>
