<svg width="98" height="107" viewBox="0 0 98 107" fill="none" xmlns="http://www.w3.org/2000/svg">
<path d="M28.1147 81.4279C19.2194 77.3284 1.54486 63.9025 2.00896 42.995C2.58909 16.8607 28.695 2 48.9994 2C69.3039 2 95.4097 18.398 95.9898 42.995C96.507 64.9221 77.2002 78.2974 69.3039 80.9427M28.1147 81.4279C39.3306 81.4279 62.8065 81.4279 66.9834 81.4279C67.5501 81.4279 68.3424 81.2648 69.3039 80.9427M28.1147 81.4279V96.2886C27.728 99.1924 28.811 105 36.2366 105C43.6623 105 55.961 105 61.1821 105C63.8894 105 69.3039 103.258 69.3039 96.2886C69.3039 89.3194 69.3039 83.1542 69.3039 80.9427M49.5796 80.9427L49.4542 51.194M49.5796 42.995C48.9994 38.7247 51.552 30.0816 66.4033 29.6716C68.8336 36.5041 68.8463 50.3741 49.4542 51.194M49.5796 42.995L49.4542 51.194M49.5796 42.995C49.5796 38.2123 46.3308 28.8517 33.336 29.6716C30.3518 36.5041 29.3975 50.3741 49.4542 51.194" stroke="black" stroke-width="3"/>
</svg>
