<svg width="36" height="28" viewBox="0 0 36 28" fill="none" xmlns="http://www.w3.org/2000/svg">
<path d="M14.9434 14.9999L19.2692 6.5L18.0894 12.4999H21.6287L16.1231 20.9999L18.0894 14.9999H14.9434Z" fill="white"/>
<path d="M19.2692 6.5L19.7598 6.59647C19.8079 6.35165 19.6682 6.10881 19.4323 6.02738C19.1965 5.94595 18.9367 6.05085 18.8235 6.27322L19.2692 6.5ZM14.9434 14.9999L14.4977 14.7731L14.1279 15.4999H14.9434V14.9999ZM18.0894 14.9999L18.5645 15.1556L18.7794 14.4999H18.0894V14.9999ZM16.1231 20.9999L15.648 20.8441C15.5697 21.0829 15.6808 21.3427 15.9076 21.451C16.1343 21.5593 16.4062 21.4826 16.5428 21.2717L16.1231 20.9999ZM21.6287 12.4999L22.0483 12.7718L22.5483 11.9999H21.6287V12.4999ZM18.0894 12.4999L17.5988 12.4035L17.4815 12.9999H18.0894V12.4999ZM18.8235 6.27322L14.4977 14.7731L15.389 15.2267L19.7148 6.72678L18.8235 6.27322ZM14.9434 15.4999H18.0894V14.4999H14.9434V15.4999ZM17.6143 14.8442L15.648 20.8441L16.5983 21.1556L18.5645 15.1556L17.6143 14.8442ZM16.5428 21.2717L22.0483 12.7718L21.209 12.2281L15.7035 20.728L16.5428 21.2717ZM21.6287 11.9999H18.0894V12.9999H21.6287V11.9999ZM18.58 12.5964L19.7598 6.59647L18.7786 6.40353L17.5988 12.4035L18.58 12.5964Z" fill="black"/>
<path d="M8.25781 1.5H27.9205C28.4449 1.5 29.4935 1.7 29.4935 2.49999C29.4935 3.29998 29.4935 17.8332 29.4935 24.9998C29.4935 25.6664 29.2576 26.9997 28.3138 26.9997C27.37 26.9997 14.5499 26.9997 8.25781 26.9997M31.4598 8.49993C32.7707 8.66659 34.9991 10.6999 34.9991 13.4999C34.9991 16.2998 32.7707 18.6665 31.4598 18.9998" stroke="black" stroke-width="2"/>
<path d="M1 2H6.07858L6.07858 26.9997H0.999999L1 2Z" stroke="black" stroke-width="2"/>
</svg>
