<svg width="111" height="85" viewBox="0 0 111 85" fill="none" xmlns="http://www.w3.org/2000/svg">
<path d="M46.9648 43.9998L60.5603 17.2856L56.8524 36.1427H67.976L50.6727 62.8569L56.8524 43.9998H46.9648Z" fill="white"/>
<path d="M60.5603 17.2856L61.0509 17.3821C61.099 17.1373 60.9593 16.8945 60.7235 16.813C60.4876 16.7316 60.2278 16.8365 60.1147 17.0589L60.5603 17.2856ZM46.9648 43.9998L46.5192 43.773L46.1494 44.4998H46.9648V43.9998ZM56.8524 43.9998L57.3276 44.1555L57.5425 43.4998H56.8524V43.9998ZM50.6727 62.8569L50.1976 62.7012C50.1193 62.9399 50.2304 63.1997 50.4571 63.308C50.6839 63.4163 50.9558 63.3396 51.0924 63.1287L50.6727 62.8569ZM67.976 36.1427L68.3956 36.4145L68.8956 35.6427H67.976V36.1427ZM56.8524 36.1427L56.3618 36.0462L56.2446 36.6427H56.8524V36.1427ZM60.1147 17.0589L46.5192 43.773L47.4105 44.2266L61.0059 17.5124L60.1147 17.0589ZM46.9648 44.4998H56.8524V43.4998H46.9648V44.4998ZM56.3773 43.8441L50.1976 62.7012L51.1478 63.0126L57.3276 44.1555L56.3773 43.8441ZM51.0924 63.1287L68.3956 36.4145L67.5563 35.8709L50.253 62.5851L51.0924 63.1287ZM67.976 35.6427H56.8524V36.6427H67.976V35.6427ZM57.343 36.2392L61.0509 17.3821L60.0697 17.1892L56.3618 36.0462L57.343 36.2392Z" fill="white"/>
<path d="M25.9551 1.57153H87.7526C89.4005 1.57153 92.6964 2.2001 92.6964 4.71438C92.6964 7.22865 92.6964 52.9046 92.6964 75.4283C92.6964 77.5236 91.9548 81.714 88.9885 81.714C86.0222 81.714 45.7303 81.714 25.9551 81.714M98.8761 23.5714C102.996 24.0952 110 30.4857 110 39.2857C110 48.0856 102.996 55.5237 98.8761 56.5713" stroke="white" stroke-width="2"/>
<path d="M1 0.999999L21.2471 1V83.8568H1V0.999999Z" stroke="white" stroke-width="2"/>
</svg>
